<?xml version="1.0" encoding="UTF-8" standalone="no"?>
<!-- Created with Inkscape (http://www.inkscape.org/) -->

<svg
   xmlns:dc="http://purl.org/dc/elements/1.1/"
   xmlns:cc="http://creativecommons.org/ns#"
   xmlns:rdf="http://www.w3.org/1999/02/22-rdf-syntax-ns#"
   xmlns:svg="http://www.w3.org/2000/svg"
   xmlns="http://www.w3.org/2000/svg"
   xmlns:xlink="http://www.w3.org/1999/xlink"
   xmlns:sodipodi="http://sodipodi.sourceforge.net/DTD/sodipodi-0.dtd"
   xmlns:inkscape="http://www.inkscape.org/namespaces/inkscape"
   id="svg3052"
   version="1.1"
   inkscape:version="0.48.4 r9939"
   width="86"
   height="86"
   sodipodi:docname="harbour-sailimgur.svg"
   inkscape:export-filename="/Users/mtw/dev/sailfishos/sailimgur/src/qml/images/sailimgur-logo.png"
   inkscape:export-xdpi="90"
   inkscape:export-ydpi="90">
  <metadata
     id="metadata3058">
    <rdf:RDF>
      <cc:Work
         rdf:about="">
        <dc:format>image/svg+xml</dc:format>
        <dc:type
           rdf:resource="http://purl.org/dc/dcmitype/StillImage" />
        <dc:title />
      </cc:Work>
    </rdf:RDF>
  </metadata>
  <defs
     id="defs3056">
    <linearGradient
       id="linearGradient3805">
      <stop
         style="stop-color:#000000;stop-opacity:0.72888887"
         offset="0"
         id="stop3807" />
      <stop
         style="stop-color:#000000;stop-opacity:0.31623933;"
         offset="1"
         id="stop3809" />
    </linearGradient>
    <inkscape:perspective
       sodipodi:type="inkscape:persp3d"
       inkscape:vp_x="0 : 58 : 1"
       inkscape:vp_y="0 : 1000 : 0"
       inkscape:vp_z="150 : 58 : 1"
       inkscape:persp3d-origin="75 : 38.666667 : 1"
       id="perspective3065" />
    <linearGradient
       inkscape:collect="always"
       xlink:href="#linearGradient3805"
       id="linearGradient3815"
       x1="100.58585"
       y1="100.58585"
       x2="33.007156"
       y2="33.007156"
       gradientUnits="userSpaceOnUse" />
  </defs>
  <sodipodi:namedview
     pagecolor="#ffffff"
     bordercolor="#666666"
     borderopacity="1"
     objecttolerance="10"
     gridtolerance="10"
     guidetolerance="10"
     inkscape:pageopacity="0"
     inkscape:pageshadow="2"
     inkscape:window-width="1250"
     inkscape:window-height="724"
     id="namedview3054"
     showgrid="false"
     inkscape:zoom="2.2456897"
     inkscape:cx="-148.99254"
     inkscape:cy="42.091743"
     inkscape:window-x="0"
     inkscape:window-y="0"
     inkscape:window-maximized="0"
     inkscape:current-layer="layer1"
     inkscape:snap-page="true"
     inkscape:snap-bbox="true" />
  <g
     inkscape:groupmode="layer"
     id="layer2"
     inkscape:label="base">
    <rect
       style="fill:url(#linearGradient3815);fill-rule:evenodd;stroke:none;stroke-width:1;stroke-linecap:butt;stroke-linejoin:miter;stroke-opacity:1;fill-opacity:1;stroke-miterlimit:4;stroke-dasharray:none"
       id="rect3035"
       width="86"
       height="86"
       x="0"
       y="0"
       rx="8.4030733"
       ry="8.4030733" />
  </g>
  <g
     inkscape:groupmode="layer"
     id="layer3"
     inkscape:label="imgur"
     style="display:inline"
     transform="translate(0,-30)">
    <g
       transform="matrix(0.54553347,0,0,0.54553347,-303.28705,-308.42523)"
       id="layer1-3">
      <g
         transform="matrix(0.93208065,0,0,0.9103974,44.122131,58.811339)"
         id="text2996">
        <path
           inkscape:connector-curvature="0"
           d="m 570.17592,754.21405 0,-19.02783 c -10e-6,-2.34546 0.39091,-4.09481 1.17275,-5.24804 0.78182,-1.15317 1.96434,-1.72977 3.54756,-1.72981 0.91864,4e-5 1.75422,0.25902 2.50674,0.77695 0.75251,0.51799 1.42195,1.30471 2.00833,2.36015 0.97728,-1.07498 2.08162,-1.86659 3.31302,-2.37481 1.23136,-0.50816 2.64843,-0.76225 4.25121,-0.76229 2.03274,4e-5 3.83095,0.37141 5.39463,1.11411 1.56364,0.74278 2.9123,1.85688 4.04598,3.34234 1.42682,-1.58318 2.88298,-2.72173 4.36849,-3.41563 1.48544,-0.69385 3.20547,-1.04078 5.16009,-1.04082 3.38138,4e-5 6.01028,1.08483 7.88672,3.25438 1.87635,2.16961 2.81455,5.22852 2.8146,9.17675 l 0,13.57455 c -5e-5,2.32595 -0.39097,4.05576 -1.17275,5.18941 -0.78188,1.13366 -1.97417,1.70048 -3.57688,1.70048 -1.6028,0 -2.78532,-0.56194 -3.54756,-1.68582 -0.76233,-1.12388 -1.14347,-2.85857 -1.14343,-5.20407 l 0,-10.70132 c -4e-5,-2.4823 -0.34698,-4.30005 -1.04081,-5.45328 -0.69392,-1.15317 -1.78359,-1.72977 -3.26904,-1.7298 -1.64188,3e-5 -2.84394,0.56685 -3.60619,1.70049 -0.76232,1.13367 -1.14346,2.92211 -1.14343,5.36532 l 0,10.81859 c -3e-5,2.32595 -0.39095,4.05576 -1.17275,5.18941 -0.78186,1.13366 -1.97415,1.70048 -3.57688,1.70048 -1.60278,0 -2.79507,-0.56682 -3.57688,-1.70048 -0.78186,-1.13365 -1.17277,-2.86346 -1.17275,-5.18941 l 0,-10.70132 c -2e-5,-2.50184 -0.34207,-4.32449 -1.02615,-5.46794 -0.68413,-1.1434 -1.75914,-1.71511 -3.22506,-1.71514 -1.64186,3e-5 -2.84393,0.56685 -3.6062,1.70049 -0.7623,1.13367 -1.14344,2.92211 -1.14343,5.36532 l 0,10.81859 c -10e-6,2.32595 -0.39092,4.05576 -1.17274,5.18941 -0.78185,1.13366 -1.97414,1.70048 -3.57688,1.70048 -1.60276,0 -2.79017,-0.56682 -3.56222,-1.70048 -0.77207,-1.13365 -1.1581,-2.86346 -1.15809,-5.18941 z"
           id="path3003"
           style="fill:#000000" />
        <path
           inkscape:connector-curvature="0"
           d="m 643.35536,756.73546 c -1.03595,1.48548 -2.26733,2.5947 -3.69415,3.32767 -1.42686,0.73297 -3.05893,1.09945 -4.89622,1.09945 -3.83099,0 -7.0707,-1.57343 -9.71915,-4.72031 -2.64845,-3.14686 -3.97268,-7.05602 -3.97268,-11.72747 0,-4.71052 1.42684,-8.67831 4.28053,-11.90339 2.85368,-3.22503 6.33282,-4.83755 10.43745,-4.83758 1.60274,3e-5 3.02469,0.27367 4.26587,0.82092 1.24114,0.54731 2.34059,1.39755 3.29835,2.55072 0.50817,-0.93816 1.13852,-1.67602 1.89106,-2.21356 0.75249,-0.53747 1.51966,-0.80623 2.30152,-0.80626 1.62227,3e-5 2.81945,0.56197 3.59154,1.68582 0.77202,1.12392 1.15805,2.84883 1.15808,5.17475 l 0,19.02783 c -3e-5,3.4987 -0.17105,6.23022 -0.51307,8.19457 -0.34209,1.96435 -0.9138,3.59154 -1.71515,4.88157 -1.38778,2.32594 -3.29838,4.08994 -5.7318,5.29202 -2.43347,1.20205 -5.32136,1.80309 -8.66367,1.8031 -4.08508,-10e-6 -7.41764,-0.6548 -9.99767,-1.96435 -2.58005,-1.30958 -3.87007,-2.9612 -3.87007,-4.95486 0,-1.1923 0.38603,-2.17936 1.15809,-2.96119 0.77205,-0.78183 1.74445,-1.17275 2.91721,-1.17275 0.56682,0 1.93013,0.42023 4.08995,1.26071 2.1598,0.84046 4.1779,1.2607 6.05431,1.2607 2.34548,0 4.16324,-0.69388 5.45328,-2.08163 1.29,-1.38775 1.93501,-3.3521 1.93503,-5.89305 -2e-5,-0.11727 -0.01,-0.30296 -0.0293,-0.55706 -0.0196,-0.25409 -0.0293,-0.44955 -0.0293,-0.58637 z M 630.8656,744.7148 c -10e-6,2.36505 0.57659,4.28054 1.72981,5.74646 1.15318,1.46594 2.63866,2.19891 4.45644,2.1989 1.81774,10e-6 3.31299,-0.73784 4.48576,-2.21356 1.17272,-1.4757 1.75909,-3.3863 1.75912,-5.7318 -3e-5,-2.28684 -0.5864,-4.14858 -1.75912,-5.58521 -1.17277,-1.4366 -2.66802,-2.1549 -4.48576,-2.15493 -1.81778,3e-5 -3.30326,0.71833 -4.45644,2.15493 -1.15322,1.43663 -1.72982,3.29837 -1.72981,5.58521 z"
           id="path3005"
           style="fill:#000000" />
        <path
           inkscape:connector-curvature="0"
           d="m 658.6304,747.79326 0,-12.60704 c -10e-6,-2.32592 0.39091,-4.05083 1.17274,-5.17475 0.78183,-1.12385 1.97412,-1.68579 3.57688,-1.68582 1.5832,3e-5 2.76084,0.56197 3.53291,1.68582 0.77204,1.12392 1.15807,2.84883 1.15808,5.17475 l 0,10.67201 c -10e-6,2.52141 0.38113,4.30497 1.14343,5.35066 0.76227,1.0457 2.00343,1.56855 3.72348,1.56855 1.72001,0 2.96116,-0.52285 3.72347,-1.56855 0.76226,-1.04569 1.14341,-2.82925 1.14343,-5.35066 l 0,-10.67201 c -2e-5,-2.32592 0.38601,-4.05083 1.15809,-5.17475 0.77203,-1.12385 1.96921,-1.68579 3.59154,-1.68582 1.58318,3e-5 2.75592,0.55709 3.51824,1.67116 0.76225,1.11414 1.1434,2.84395 1.14343,5.18941 l 0,12.60704 c -3e-5,4.49554 -1.22164,7.93071 -3.66484,10.30552 -2.44325,2.37481 -5.98103,3.56222 -10.61336,3.56222 -4.63237,0 -8.17504,-1.18741 -10.62803,-3.56222 -2.453,-2.37481 -3.6795,-5.80998 -3.67949,-10.30552 z"
           id="path3007"
           style="fill:#000000" />
        <path
           inkscape:connector-curvature="0"
           d="m 693.66624,754.21405 0,-19.02783 c 0,-2.32592 0.38603,-4.05083 1.15809,-5.17475 0.77205,-1.12385 1.95946,-1.68579 3.56222,-1.68582 0.95773,3e-5 1.80797,0.24924 2.55072,0.74763 0.74273,0.49844 1.39752,1.25584 1.96436,2.27219 0.97727,-1.05544 2.0132,-1.85193 3.10778,-2.38947 1.09455,-0.53748 2.19888,-0.80623 3.31301,-0.80626 1.30955,3e-5 2.43832,0.46424 3.38631,1.39263 0.94795,0.92846 1.42193,2.02791 1.42195,3.29836 -2e-5,1.89597 -1.73959,3.47917 -5.21872,4.74962 -1.25095,0.44958 -2.18915,0.82095 -2.8146,1.11412 -1.1923,0.56684 -1.98391,1.1972 -2.37481,1.89105 -0.39093,0.6939 -0.58639,1.94971 -0.58637,3.76745 l 0,9.85108 c -2e-5,2.32595 -0.39093,4.05576 -1.17275,5.18941 -0.78184,1.13366 -1.97414,1.70048 -3.57688,1.70048 -1.60276,0 -2.79017,-0.56682 -3.56222,-1.70048 -0.77206,-1.13365 -1.15809,-2.86346 -1.15809,-5.18941 z"
           id="path3009"
           style="fill:#000000" />
        <g
           id="g3797">
          <path
             inkscape:connector-curvature="0"
             d="m 563.34466,754.21405 c -10e-6,2.3455 -0.38115,4.08019 -1.14343,5.20407 -0.76229,1.12388 -1.93504,1.68582 -3.51824,1.68582 -1.60276,0 -2.79505,-0.56682 -3.57688,-1.70048 -0.78183,-1.13365 -1.17275,-2.86346 -1.17275,-5.18941 l 0,-19.02783 c 0,-2.32592 0.38603,-4.05083 1.15809,-5.17475 0.77206,-1.12385 1.96923,-1.68579 3.59154,-1.68582 1.5832,3e-5 2.75595,0.56197 3.51824,1.68582 0.76228,1.12392 1.14342,2.84883 1.14343,5.17475 z"
             id="path3001"
             style="fill:#000000" />
          <path
             inkscape:connector-curvature="0"
             d="m 553.2004,720.35097 c -10e-6,-1.50499 0.5375,-2.79501 1.61253,-3.87007 1.07501,-1.07497 2.36503,-1.61248 3.87006,-1.61253 1.48547,5e-5 2.75595,0.53756 3.81143,1.61253 1.05546,1.07506 1.5832,2.36508 1.58321,3.87007 -10e-6,1.52461 -0.52286,2.81463 -1.56855,3.87006 -1.04571,1.05551 -2.32107,1.58325 -3.82609,1.58321 -1.54412,4e-5 -2.84392,-0.5277 -3.89938,-1.58321 -1.05548,-1.05543 -1.58322,-2.34545 -1.58321,-3.87006 z"
             id="path3001-4"
             style="fill:#89c623" />
        </g>
      </g>
    </g>
  </g>
  <g
     inkscape:groupmode="layer"
     id="layer1"
     inkscape:label="sail"
     style="display:inline"
     transform="translate(0,-30)">
    <path
       style="fill:#ffffff;fill-opacity:0.33333334;stroke:#000000;stroke-width:0.61551285000000000px;stroke-linecap:butt;stroke-linejoin:miter;stroke-opacity:1"
       d="m 38.054756,52.472664 c 0.334748,-3.726487 0.298276,-4.51012 -0.387616,-5.197902 -2.195739,-2.231665 -6.336939,-2.78034 -12.019661,-2.70761 -2.601106,0.293379 -4.594849,0.832592 -6.166344,1.458972 -2.799907,1.116013 -4.259434,2.508731 -5.42556,3.280774 -2.568217,1.977818 -4.7290049,4.057493 -5.2477792,6.547672 -0.3522626,3.411067 1.6388302,4.035883 2.9277852,4.432408 0,0 8.965752,2.166324 11.097643,2.844653 3.722902,1.20814 1.984821,4.088616 0.250574,4.910041 -5.662082,2.880141 -7.336142,3.121202 -12.789188,5.980019 -4.3104225,2.492272 -2.0843116,4.125307 0.603267,4.258078 4.050436,-0.06642 11.403093,-3.562975 16.093669,-7.201651 2.8391,-2.057086 4.457614,-7.150934 2.774115,-9.453962 -1.814666,-2.875113 -8.978945,-2.994674 -12.808666,-3.893973 -2.415671,-0.279827 -3.432691,-1.62172 -0.942676,-3.98114 3.572225,-2.624558 7.321798,-4.093571 10.455419,-4.458773 1.943119,-0.210104 3.695351,-0.199967 5.996648,0.153671 1.295307,0.328956 1.692499,0.704894 1.854952,1.604379 l -0.02939,1.378327 c 0.153506,1.585475 3.493487,1.81673 3.762808,0.04602 z"
       id="path3063"
       inkscape:connector-curvature="0"
       sodipodi:nodetypes="cccscccccccccccccccc" />
    <path
       style="fill:#ffffff;stroke:#000000;stroke-width:0.61551285000000000px;stroke-linecap:butt;stroke-linejoin:miter;stroke-opacity:1;fill-opacity:0.33333334"
       d="M 57.375 31 C 56.955811 30.949 56.454765 31.020105 55.90625 31.25 L 48.21875 37.34375 C 47.25205 38.137193 45.836855 37.769582 46.25 36.4375 L 46.6875 35.15625 C 47.461819 32.938165 47.039822 31.978345 45.78125 31.71875 C 43.796211 31.421597 41.230784 31.32248 38.96875 31.90625 C 36.063692 33.069099 35.34711 33.555901 33.96875 34.71875 C 32.249361 36.436531 31.66186 37.694665 31.1875 39.125 C 30.641179 40.621441 30.692177 41.445433 30.8125 42.34375 C 31.425562 45.455759 34.287863 45.401806 37.21875 43.6875 C 39.029292 42.667282 41.851243 40.844205 43.28125 40.71875 C 44.960346 40.452138 44.332421 41.155298 44.4375 42.09375 C 44.688188 43.17187 46.315257 43.01056 48.40625 41.46875 C 49.684402 40.506084 50.186979 39.833943 52.03125 38.3125 C 53.496323 36.88664 54.692489 37.318835 54.375 38.875 L 53.4375 42.34375 C 53.110268 44.51591 56.186592 44.45261 59.65625 42.5 C 61.04521 41.651529 62.572493 40.576816 63.34375 39.78125 C 66.478994 36.343906 63.591338 34.681516 61.8125 36.65625 L 60.15625 38.4375 C 58.687229 39.642367 57.151543 39.825587 58.21875 36.78125 C 58.458572 35.805049 58.941122 34.31584 59.09375 32.8125 C 59.278136 32.290567 58.632568 31.153001 57.375 31 z M 40.21875 35.0625 C 41.314565 35.102402 41.342777 36.181204 40.59375 37.0625 C 40.007255 37.636043 39.191525 38.440729 38.4375 39.0625 C 37.879358 39.522745 37.34685 39.861656 37.03125 39.96875 C 36.393179 40.347144 34.515192 40.857561 35.1875 38.96875 C 35.708675 37.887239 37.187597 36.437717 38.78125 35.40625 C 39.39265 35.143109 39.853478 35.0492 40.21875 35.0625 z "
       transform="translate(0,30)"
       id="path3087" />
    <path
       style="fill:#ffffff;stroke:#000000;stroke-width:0.61551285000000000px;stroke-linecap:butt;stroke-linejoin:miter;stroke-opacity:1;display:inline;fill-opacity:0.33333334"
       d="M 79.34375 16.3125 C 78.269604 16.347503 77.019583 16.989493 75.90625 18.5 C 73.932355 20.79457 73.268384 21.645878 72.125 23.4375 C 69.870722 27.272282 66.167306 34.950774 65.8125 37.03125 C 65.625612 38.250151 64.778687 40.998138 66.90625 43.28125 C 67.697055 43.968524 71.079352 45.237299 73.28125 43.5 C 74.293639 42.701312 76.131836 40.486915 77.4375 38.96875 C 79.915172 36.288092 77.648426 33.409212 75.3125 35.84375 L 72.3125 39.53125 C 71.054631 41.036058 69.688603 39.942076 70.1875 38.65625 L 72.5 35.46875 C 75.648545 30.930686 77.921514 29.327068 81.625 19.96875 C 82.418 17.893725 81.133993 16.254162 79.34375 16.3125 z M 76.8125 22.90625 C 77.159673 22.969004 77.327111 23.423367 76.90625 24 L 72.1875 31.21875 C 71.647953 32.068152 70.518942 31.932755 71.1875 30.65625 L 76.09375 23.25 C 76.333553 22.968899 76.604196 22.868598 76.8125 22.90625 z "
       transform="translate(0,30)"
       id="path3351" />
    <path
       style="fill:#ffffff;stroke:#000000;stroke-width:0.61551285000000000px;stroke-linecap:butt;stroke-linejoin:miter;stroke-opacity:1;display:inline;fill-opacity:0.33333334"
       d="m 59.231508,52.771952 c 4.154165,-0.305538 4.185968,0.815924 4.166875,2.422604 l -0.0969,2.3257 c -1.538893,0.25202 -3.727662,-0.0082 -4.138487,-1.408554 z"
       id="path3355"
       inkscape:connector-curvature="0"
       sodipodi:nodetypes="ccccc" />
    <path
       style="fill:#47a400;fill-opacity:0;stroke:none"
       d="m 10.087824,47.694481 c -1.7658547,-0.370316 -2.1190137,-0.938012 -1.2616135,-2.02802 0.4885286,-0.621063 4.6523555,-2.806779 8.5666585,-4.496893 6.219932,-2.685636 7.776224,-3.748723 8.03664,-5.48975 0.135724,-0.907389 -0.494066,-2.021596 -1.410567,-2.495537 -0.629789,-0.325676 -4.846655,-1.504688 -10.0684,-2.815067 -1.52591,-0.382922 -3.040257,-0.853278 -3.365216,-1.045236 -1.3590841,-0.80283 -1.7282092,-2.865414 -0.8408477,-4.698459 1.0068107,-2.079793 4.9726407,-5.607539 8.3542957,-7.431441 0.83632,-0.451071 2.42231,-1.086291 3.524422,-1.411599 4.055579,-1.197078 10.686516,-0.926081 13.809484,0.564374 2.096311,1.000476 2.33255,1.397884 2.33255,3.923868 0,2.36131 -0.321803,2.975732 -1.558541,2.975732 -0.957436,0 -1.558541,-0.692622 -1.558541,-1.795827 0,-1.951161 -0.842766,-2.406959 -4.795789,-2.593739 -4.743445,-0.224127 -8.336268,0.833239 -13.009457,3.828679 -2.495296,1.599444 -3.334506,3.531639 -2.015827,4.641235 0.755703,0.635881 0.568768,0.589133 5.905526,1.476855 6.155042,1.023837 7.825957,1.672834 8.808685,3.421363 1.065203,1.895275 0.01901,5.732017 -2.13341,7.823929 -3.98892,3.876787 -14.070389,8.327017 -17.320052,7.645533 l 0,0 z"
       id="path3006"
       inkscape:connector-curvature="0"
       transform="translate(0,30)" />
  </g>
</svg>
