<?xml version="1.0" encoding="UTF-8" standalone="no"?>
<!-- Created with Inkscape (http://www.inkscape.org/) -->

<svg
   xmlns:dc="http://purl.org/dc/elements/1.1/"
   xmlns:cc="http://creativecommons.org/ns#"
   xmlns:rdf="http://www.w3.org/1999/02/22-rdf-syntax-ns#"
   xmlns:svg="http://www.w3.org/2000/svg"
   xmlns="http://www.w3.org/2000/svg"
   xmlns:sodipodi="http://sodipodi.sourceforge.net/DTD/sodipodi-0.dtd"
   xmlns:inkscape="http://www.inkscape.org/namespaces/inkscape"
   id="svg3052"
   version="1.1"
   inkscape:version="0.48.2 r9819"
   width="150"
   height="116"
   sodipodi:docname="sailimgur-logo_150x108.svg">
  <metadata
     id="metadata3058">
    <rdf:RDF>
      <cc:Work
         rdf:about="">
        <dc:format>image/svg+xml</dc:format>
        <dc:type
           rdf:resource="http://purl.org/dc/dcmitype/StillImage" />
        <dc:title />
      </cc:Work>
    </rdf:RDF>
  </metadata>
  <defs
     id="defs3056">
    <inkscape:perspective
       sodipodi:type="inkscape:persp3d"
       inkscape:vp_x="0 : 58 : 1"
       inkscape:vp_y="0 : 1000 : 0"
       inkscape:vp_z="150 : 58 : 1"
       inkscape:persp3d-origin="75 : 38.666667 : 1"
       id="perspective3065" />
  </defs>
  <sodipodi:namedview
     pagecolor="#ffffff"
     bordercolor="#666666"
     borderopacity="1"
     objecttolerance="10"
     gridtolerance="10"
     guidetolerance="10"
     inkscape:pageopacity="0"
     inkscape:pageshadow="2"
     inkscape:window-width="1250"
     inkscape:window-height="724"
     id="namedview3054"
     showgrid="false"
     inkscape:zoom="3.1758848"
     inkscape:cx="69.562861"
     inkscape:cy="68.980999"
     inkscape:window-x="0"
     inkscape:window-y="0"
     inkscape:window-maximized="0"
     inkscape:current-layer="layer1" />
  <g
     inkscape:groupmode="layer"
     id="layer3"
     inkscape:label="imgur"
     style="display:inline">
    <g
       transform="translate(-559.40627,-647.52193)"
       id="layer1-3">
      <g
         transform="matrix(0.93208065,0,0,0.9103974,44.122131,58.811339)"
         id="text2996">
        <path
           inkscape:connector-curvature="0"
           d="m 570.17592,754.21405 0,-19.02783 c -10e-6,-2.34546 0.39091,-4.09481 1.17275,-5.24804 0.78182,-1.15317 1.96434,-1.72977 3.54756,-1.72981 0.91864,4e-5 1.75422,0.25902 2.50674,0.77695 0.75251,0.51799 1.42195,1.30471 2.00833,2.36015 0.97728,-1.07498 2.08162,-1.86659 3.31302,-2.37481 1.23136,-0.50816 2.64843,-0.76225 4.25121,-0.76229 2.03274,4e-5 3.83095,0.37141 5.39463,1.11411 1.56364,0.74278 2.9123,1.85688 4.04598,3.34234 1.42682,-1.58318 2.88298,-2.72173 4.36849,-3.41563 1.48544,-0.69385 3.20547,-1.04078 5.16009,-1.04082 3.38138,4e-5 6.01028,1.08483 7.88672,3.25438 1.87635,2.16961 2.81455,5.22852 2.8146,9.17675 l 0,13.57455 c -5e-5,2.32595 -0.39097,4.05576 -1.17275,5.18941 -0.78188,1.13366 -1.97417,1.70048 -3.57688,1.70048 -1.6028,0 -2.78532,-0.56194 -3.54756,-1.68582 -0.76233,-1.12388 -1.14347,-2.85857 -1.14343,-5.20407 l 0,-10.70132 c -4e-5,-2.4823 -0.34698,-4.30005 -1.04081,-5.45328 -0.69392,-1.15317 -1.78359,-1.72977 -3.26904,-1.7298 -1.64188,3e-5 -2.84394,0.56685 -3.60619,1.70049 -0.76232,1.13367 -1.14346,2.92211 -1.14343,5.36532 l 0,10.81859 c -3e-5,2.32595 -0.39095,4.05576 -1.17275,5.18941 -0.78186,1.13366 -1.97415,1.70048 -3.57688,1.70048 -1.60278,0 -2.79507,-0.56682 -3.57688,-1.70048 -0.78186,-1.13365 -1.17277,-2.86346 -1.17275,-5.18941 l 0,-10.70132 c -2e-5,-2.50184 -0.34207,-4.32449 -1.02615,-5.46794 -0.68413,-1.1434 -1.75914,-1.71511 -3.22506,-1.71514 -1.64186,3e-5 -2.84393,0.56685 -3.6062,1.70049 -0.7623,1.13367 -1.14344,2.92211 -1.14343,5.36532 l 0,10.81859 c -10e-6,2.32595 -0.39092,4.05576 -1.17274,5.18941 -0.78185,1.13366 -1.97414,1.70048 -3.57688,1.70048 -1.60276,0 -2.79017,-0.56682 -3.56222,-1.70048 -0.77207,-1.13365 -1.1581,-2.86346 -1.15809,-5.18941 z"
           id="path3003"
           style="fill:#000000" />
        <path
           inkscape:connector-curvature="0"
           d="m 643.35536,756.73546 c -1.03595,1.48548 -2.26733,2.5947 -3.69415,3.32767 -1.42686,0.73297 -3.05893,1.09945 -4.89622,1.09945 -3.83099,0 -7.0707,-1.57343 -9.71915,-4.72031 -2.64845,-3.14686 -3.97268,-7.05602 -3.97268,-11.72747 0,-4.71052 1.42684,-8.67831 4.28053,-11.90339 2.85368,-3.22503 6.33282,-4.83755 10.43745,-4.83758 1.60274,3e-5 3.02469,0.27367 4.26587,0.82092 1.24114,0.54731 2.34059,1.39755 3.29835,2.55072 0.50817,-0.93816 1.13852,-1.67602 1.89106,-2.21356 0.75249,-0.53747 1.51966,-0.80623 2.30152,-0.80626 1.62227,3e-5 2.81945,0.56197 3.59154,1.68582 0.77202,1.12392 1.15805,2.84883 1.15808,5.17475 l 0,19.02783 c -3e-5,3.4987 -0.17105,6.23022 -0.51307,8.19457 -0.34209,1.96435 -0.9138,3.59154 -1.71515,4.88157 -1.38778,2.32594 -3.29838,4.08994 -5.7318,5.29202 -2.43347,1.20205 -5.32136,1.80309 -8.66367,1.8031 -4.08508,-10e-6 -7.41764,-0.6548 -9.99767,-1.96435 -2.58005,-1.30958 -3.87007,-2.9612 -3.87007,-4.95486 0,-1.1923 0.38603,-2.17936 1.15809,-2.96119 0.77205,-0.78183 1.74445,-1.17275 2.91721,-1.17275 0.56682,0 1.93013,0.42023 4.08995,1.26071 2.1598,0.84046 4.1779,1.2607 6.05431,1.2607 2.34548,0 4.16324,-0.69388 5.45328,-2.08163 1.29,-1.38775 1.93501,-3.3521 1.93503,-5.89305 -2e-5,-0.11727 -0.01,-0.30296 -0.0293,-0.55706 -0.0196,-0.25409 -0.0293,-0.44955 -0.0293,-0.58637 z M 630.8656,744.7148 c -10e-6,2.36505 0.57659,4.28054 1.72981,5.74646 1.15318,1.46594 2.63866,2.19891 4.45644,2.1989 1.81774,10e-6 3.31299,-0.73784 4.48576,-2.21356 1.17272,-1.4757 1.75909,-3.3863 1.75912,-5.7318 -3e-5,-2.28684 -0.5864,-4.14858 -1.75912,-5.58521 -1.17277,-1.4366 -2.66802,-2.1549 -4.48576,-2.15493 -1.81778,3e-5 -3.30326,0.71833 -4.45644,2.15493 -1.15322,1.43663 -1.72982,3.29837 -1.72981,5.58521 z"
           id="path3005"
           style="fill:#000000" />
        <path
           inkscape:connector-curvature="0"
           d="m 658.6304,747.79326 0,-12.60704 c -10e-6,-2.32592 0.39091,-4.05083 1.17274,-5.17475 0.78183,-1.12385 1.97412,-1.68579 3.57688,-1.68582 1.5832,3e-5 2.76084,0.56197 3.53291,1.68582 0.77204,1.12392 1.15807,2.84883 1.15808,5.17475 l 0,10.67201 c -10e-6,2.52141 0.38113,4.30497 1.14343,5.35066 0.76227,1.0457 2.00343,1.56855 3.72348,1.56855 1.72001,0 2.96116,-0.52285 3.72347,-1.56855 0.76226,-1.04569 1.14341,-2.82925 1.14343,-5.35066 l 0,-10.67201 c -2e-5,-2.32592 0.38601,-4.05083 1.15809,-5.17475 0.77203,-1.12385 1.96921,-1.68579 3.59154,-1.68582 1.58318,3e-5 2.75592,0.55709 3.51824,1.67116 0.76225,1.11414 1.1434,2.84395 1.14343,5.18941 l 0,12.60704 c -3e-5,4.49554 -1.22164,7.93071 -3.66484,10.30552 -2.44325,2.37481 -5.98103,3.56222 -10.61336,3.56222 -4.63237,0 -8.17504,-1.18741 -10.62803,-3.56222 -2.453,-2.37481 -3.6795,-5.80998 -3.67949,-10.30552 z"
           id="path3007"
           style="fill:#000000" />
        <path
           inkscape:connector-curvature="0"
           d="m 693.66624,754.21405 0,-19.02783 c 0,-2.32592 0.38603,-4.05083 1.15809,-5.17475 0.77205,-1.12385 1.95946,-1.68579 3.56222,-1.68582 0.95773,3e-5 1.80797,0.24924 2.55072,0.74763 0.74273,0.49844 1.39752,1.25584 1.96436,2.27219 0.97727,-1.05544 2.0132,-1.85193 3.10778,-2.38947 1.09455,-0.53748 2.19888,-0.80623 3.31301,-0.80626 1.30955,3e-5 2.43832,0.46424 3.38631,1.39263 0.94795,0.92846 1.42193,2.02791 1.42195,3.29836 -2e-5,1.89597 -1.73959,3.47917 -5.21872,4.74962 -1.25095,0.44958 -2.18915,0.82095 -2.8146,1.11412 -1.1923,0.56684 -1.98391,1.1972 -2.37481,1.89105 -0.39093,0.6939 -0.58639,1.94971 -0.58637,3.76745 l 0,9.85108 c -2e-5,2.32595 -0.39093,4.05576 -1.17275,5.18941 -0.78184,1.13366 -1.97414,1.70048 -3.57688,1.70048 -1.60276,0 -2.79017,-0.56682 -3.56222,-1.70048 -0.77206,-1.13365 -1.15809,-2.86346 -1.15809,-5.18941 z"
           id="path3009"
           style="fill:#000000" />
        <g
           id="g3797">
          <path
             inkscape:connector-curvature="0"
             d="m 563.34466,754.21405 c -10e-6,2.3455 -0.38115,4.08019 -1.14343,5.20407 -0.76229,1.12388 -1.93504,1.68582 -3.51824,1.68582 -1.60276,0 -2.79505,-0.56682 -3.57688,-1.70048 -0.78183,-1.13365 -1.17275,-2.86346 -1.17275,-5.18941 l 0,-19.02783 c 0,-2.32592 0.38603,-4.05083 1.15809,-5.17475 0.77206,-1.12385 1.96923,-1.68579 3.59154,-1.68582 1.5832,3e-5 2.75595,0.56197 3.51824,1.68582 0.76228,1.12392 1.14342,2.84883 1.14343,5.17475 z"
             id="path3001"
             style="fill:#000000" />
          <path
             inkscape:connector-curvature="0"
             d="m 553.2004,720.35097 c -10e-6,-1.50499 0.5375,-2.79501 1.61253,-3.87007 1.07501,-1.07497 2.36503,-1.61248 3.87006,-1.61253 1.48547,5e-5 2.75595,0.53756 3.81143,1.61253 1.05546,1.07506 1.5832,2.36508 1.58321,3.87007 -10e-6,1.52461 -0.52286,2.81463 -1.56855,3.87006 -1.04571,1.05551 -2.32107,1.58325 -3.82609,1.58321 -1.54412,4e-5 -2.84392,-0.5277 -3.89938,-1.58321 -1.05548,-1.05543 -1.58322,-2.34545 -1.58321,-3.87006 z"
             id="path3001-4"
             style="fill:#89c623" />
        </g>
      </g>
    </g>
  </g>
  <g
     inkscape:groupmode="layer"
     id="layer1"
     inkscape:label="sail"
     style="display:inline">
    <path
       style="fill:#ffffff;stroke:#000000;stroke-width:1px;stroke-linecap:butt;stroke-linejoin:miter;stroke-opacity:1;fill-opacity:0.33333334"
       d="m 69.854408,21.239221 c 0.543853,-6.05428 0.484598,-7.327418 -0.629746,-8.44483 C 65.657329,9.1686903 58.929282,8.2772789 49.696783,8.3954406 37.941617,9.7213075 33.821776,14.137614 30.863864,16.095923 c -4.172483,3.213284 -7.683032,6.592053 -8.525865,10.63775 -0.572307,5.541829 2.662543,6.556945 4.75666,7.201162 0,0 14.566311,3.519545 18.029913,4.6216 6.048455,1.962818 3.224662,6.642616 0.407098,7.977154 -9.198968,4.679253 -11.918748,5.070896 -20.778102,9.715505 -7.002977,4.049098 -3.3863,6.702227 0.980105,6.917935 6.580587,-0.107903 18.526166,-5.788627 26.146763,-11.700243 4.612578,-3.342068 7.242113,-11.617848 4.506999,-15.359488 -2.948217,-4.671085 -14.587747,-4.865332 -20.809746,-6.326389 -3.924648,-0.454623 -5.576961,-2.634745 -1.53153,-6.468003 5.803656,-4.26402 11.895443,-6.650667 16.986517,-7.243996 3.15691,-0.34135 6.003694,-0.324879 9.742522,0.249662 2.104436,0.534442 2.749738,1.145215 3.013669,2.606572 l -0.04775,2.239316 c 0.249396,2.575859 5.675733,2.95157 6.113291,0.07476 z"
       id="path3063"
       inkscape:connector-curvature="0"
       sodipodi:nodetypes="ccccccccccccccccccc" />
    <path
       style="fill:#ffffff;stroke:#000000;stroke-width:1px;stroke-linecap:butt;stroke-linejoin:miter;stroke-opacity:1;fill-opacity:0.33333334"
       d="M 100.71875 35.0625 C 100.16681 35.072221 99.543363 35.219874 98.875 35.5 L 86.34375 45.40625 C 82.49104 48.198207 81.564144 46.665142 82.625 44 L 83.875 41.875 C 86.4689 37.547755 84.673652 37.036977 82.40625 36.28125 C 79.570868 35.13053 75.01879 35.614073 71.34375 36.5625 C 66.624014 38.451737 65.458118 39.235763 63.21875 41.125 C 59.980026 43.860151 59.458175 45.95744 58.6875 48.28125 C 57.799913 50.71246 57.898265 52.040539 58.09375 53.5 C 58.14351 58.945596 63.738302 58.472667 68.5 55.6875 C 71.441517 54.029991 76.344669 49.733154 78 50.53125 C 79.670382 51.934949 77.333311 54.006259 77.03125 54.75 C 76.460461 56.15541 77.306311 56.755573 80.53125 56.5 C 82.435192 56.090651 84.075441 54.811792 85.40625 53.625 C 87.148842 51.72702 90.154056 49.551905 92.59375 46.96875 C 94.973997 44.65221 96.890813 45.34676 96.375 47.875 L 94.875 53.53125 C 94.343359 57.060274 100.05144 57.51314 105.1875 54.0625 C 107.11012 52.62836 107.95504 52.173344 111.15625 49.65625 C 116.13863 44.294379 111.32751 41.104226 108.4375 44.3125 L 105.75 47.1875 C 103.36334 49.145002 100.8599 49.414767 102.59375 44.46875 C 102.98338 42.882754 103.78328 40.504918 104.03125 38.0625 C 104.35578 37.14387 103.11049 35.020374 100.71875 35.0625 z M 73.375 41.6875 C 75.155329 41.752326 75.216916 43.505692 74 44.9375 C 72.341824 46.559057 71.483689 47.664252 68.21875 49.6875 C 66.402831 50.74756 64.345227 51.16243 65.4375 48.09375 C 65.95026 46.002688 68.410853 43.925785 71 42.25 C 71.993318 41.822485 72.781557 41.665891 73.375 41.6875 z "
       id="path3087" />
    <path
       style="fill:#ffffff;stroke:#000000;stroke-width:1px;stroke-linecap:butt;stroke-linejoin:miter;stroke-opacity:1;display:inline;fill-opacity:0.33333334"
       d="m 114.96513,44.86862 c 0.6321,-8.890626 6.57093,-15.810879 10.23337,-22.041102 1.85761,-2.910779 2.93311,-4.301361 6.14002,-8.029259 4.82344,-6.5441696 11.35013,-3.032394 9.28876,2.361547 -6.01691,15.204098 -9.68371,17.817012 -14.79903,25.189831 l -3.77848,5.195402 c -0.81054,2.089032 1.41999,3.861731 3.4636,1.416928 l 4.88054,-5.982584 c 3.79509,-3.9553 7.48898,0.682805 3.4636,5.037966 -2.12126,2.466504 -2.78717,4.933009 -6.76977,7.399513 -5.13588,2.377225 -8.94858,1.588895 -10.23337,0.472309 -3.45657,-3.709285 -2.13721,-7.092074 -1.88924,-11.020551 z"
       id="path3351"
       inkscape:connector-curvature="0"
       sodipodi:nodetypes="cccccccccccc" />
    <path
       style="fill:none;stroke:#000000;stroke-width:1px;stroke-linecap:butt;stroke-linejoin:miter;stroke-opacity:1;display:inline"
       d="m 123.68144,34.55885 7.97196,-12.046205 c 1.8182,-1.607488 1.92565,-0.638629 1.22128,1.194279 l -7.65708,11.731332 c -1.54453,1.435653 -2.62234,1.194481 -1.53616,-0.879406 z"
       id="path3353"
       inkscape:connector-curvature="0"
       sodipodi:nodetypes="ccccc" />
    <path
       style="fill:#ffffff;stroke:#000000;stroke-width:1px;stroke-linecap:butt;stroke-linejoin:miter;stroke-opacity:1;display:inline;fill-opacity:0.33333334"
       d="m 104.25946,21.725463 c 6.74911,-0.496396 6.80078,1.325601 6.76976,3.935911 l -0.15744,3.778475 c -2.50018,0.409447 -5.94487,0.543248 -6.61232,-1.731801 z"
       id="path3355"
       inkscape:connector-curvature="0"
       sodipodi:nodetypes="ccccc" />
  </g>
</svg>
