<?xml version="1.0" encoding="UTF-8" standalone="no"?>
<!-- Created with Inkscape (http://www.inkscape.org/) -->

<svg
   xmlns:dc="http://purl.org/dc/elements/1.1/"
   xmlns:cc="http://creativecommons.org/ns#"
   xmlns:rdf="http://www.w3.org/1999/02/22-rdf-syntax-ns#"
   xmlns:svg="http://www.w3.org/2000/svg"
   xmlns="http://www.w3.org/2000/svg"
   xmlns:xlink="http://www.w3.org/1999/xlink"
   xmlns:sodipodi="http://sodipodi.sourceforge.net/DTD/sodipodi-0.dtd"
   xmlns:inkscape="http://www.inkscape.org/namespaces/inkscape"
   width="86"
   height="86"
   id="svg2"
   version="1.1"
   inkscape:version="0.48.2 r9819"
   sodipodi:docname="sailimgur-logo_150x108.svg"
   inkscape:export-filename="icon.png"
   inkscape:export-xdpi="90"
   inkscape:export-ydpi="90">
  <defs
     id="defs4">
    <linearGradient
       id="linearGradient3759">
      <stop
         style="stop-color:#0b0000;stop-opacity:0.49411765;"
         offset="0"
         id="stop3761" />
      <stop
         style="stop-color:#140000;stop-opacity:1;"
         offset="1"
         id="stop3763" />
    </linearGradient>
    <linearGradient
       inkscape:collect="always"
       xlink:href="#linearGradient3759"
       id="linearGradient3765"
       x1="86"
       y1="0"
       x2="0"
       y2="86"
       gradientUnits="userSpaceOnUse" />
    <linearGradient
       inkscape:collect="always"
       xlink:href="#linearGradient3759"
       id="linearGradient4487"
       x1="85"
       y1="-12.999999"
       x2="0"
       y2="72"
       gradientUnits="userSpaceOnUse" />
    <linearGradient
       inkscape:collect="always"
       xlink:href="#linearGradient3759-7"
       id="linearGradient5742-1"
       x1="86"
       y1="0"
       x2="0"
       y2="86"
       gradientUnits="userSpaceOnUse" />
    <linearGradient
       id="linearGradient3759-7">
      <stop
         style="stop-color:#008080;stop-opacity:1;"
         offset="0"
         id="stop3761-4" />
      <stop
         style="stop-color:#39ad59;stop-opacity:1;"
         offset="1"
         id="stop3763-0" />
    </linearGradient>
    <linearGradient
       y2="86"
       x2="85"
       y1="1"
       x1="0"
       gradientUnits="userSpaceOnUse"
       id="linearGradient3005"
       xlink:href="#linearGradient3759-7"
       inkscape:collect="always" />
    <linearGradient
       inkscape:collect="always"
       xlink:href="#linearGradient3759"
       id="linearGradient3776"
       gradientUnits="userSpaceOnUse"
       x1="85"
       y1="1"
       x2="0"
       y2="86"
       gradientTransform="matrix(-1,0,0,1,86,966.36218)" />
  </defs>
  <sodipodi:namedview
     id="base"
     pagecolor="#ffffff"
     bordercolor="#666666"
     borderopacity="1.0"
     inkscape:pageopacity="0.0"
     inkscape:pageshadow="2"
     inkscape:zoom="2"
     inkscape:cx="54.616685"
     inkscape:cy="36.577989"
     inkscape:document-units="px"
     inkscape:current-layer="layer2"
     showgrid="true"
     inkscape:snap-global="false"
     inkscape:window-width="1280"
     inkscape:window-height="752"
     inkscape:window-x="0"
     inkscape:window-y="0"
     inkscape:window-maximized="1">
    <inkscape:grid
       type="xygrid"
       id="grid2985"
       empspacing="5"
       visible="true"
       enabled="true"
       snapvisiblegridlinesonly="true"
       spacingx="1px"
       spacingy="1px" />
  </sodipodi:namedview>
  <metadata
     id="metadata7">
    <rdf:RDF>
      <cc:Work
         rdf:about="">
        <dc:format>image/svg+xml</dc:format>
        <dc:type
           rdf:resource="http://purl.org/dc/dcmitype/StillImage" />
        <dc:title></dc:title>
      </cc:Work>
    </rdf:RDF>
  </metadata>
  <g
     inkscape:label="square"
     inkscape:groupmode="layer"
     id="layer1"
     transform="translate(0,-966.36218)"
     style="display:none">
    <path
       style="fill:url(#linearGradient3776);fill-opacity:1;stroke:none"
       d="m 0,1009.3622 c 0,9.9927 0,41 0,41 0,1 1,2 2,2 0,0 28.786311,0 41,0 11.512947,0 41,0 41,0 1,0 2,-1 2,-2 0,0 0,-29.978 0,-41 0,-12.32734 0,-41.00002 0,-41.00002 0,-1 -1,-2 -2,-2 0,0 -31.870917,0 -41,0 -10.861218,0 -41,0 -41,0 -1,0 -2,1 -2,2 0,0 0,30.81917 0,41.00002 z"
       id="path5226"
       inkscape:connector-curvature="0"
       sodipodi:nodetypes="sccsccsccsccs" />
    <text
       xml:space="preserve"
       style="font-size:40px;font-style:normal;font-weight:normal;line-height:125%;letter-spacing:0px;word-spacing:0px;fill:#000000;fill-opacity:1;stroke:none;font-family:Sans"
       x="3.5355339"
       y="38.977398"
       id="text3778"
       sodipodi:linespacing="125%"
       transform="translate(0,966.36218)"><tspan
         sodipodi:role="line"
         id="tspan3780"
         x="3.5355339"
         y="38.977398" /></text>
  </g>
  <g
     inkscape:groupmode="layer"
     id="layer2"
     inkscape:label="Layer"
     style="display:inline"
     sodipodi:insensitive="true">
    <path
       sodipodi:type="arc"
       style="fill:url(#linearGradient3005);fill-opacity:1;stroke:none"
       id="path5226-9"
       sodipodi:cx="43"
       sodipodi:cy="43"
       sodipodi:rx="43"
       sodipodi:ry="43"
       d="M 86,43 A 43,43 0 1 1 0,43 43,43 0 1 1 86,43 z"
       transform="translate(0.20100995,0.15075747)" />
  </g>
  <g
     inkscape:groupmode="layer"
     id="layer5"
     inkscape:label="purje"
     sodipodi:insensitive="true">
    <path
       style="fill:#ffffff;fill-opacity:0.52941165;stroke:none"
       d="m 66.590989,52.041018 -48.170932,0 C 29.124709,35.984041 50.534012,14.574738 66.590989,9.2224125 z"
       id="path3845"
       inkscape:connector-curvature="0"
       sodipodi:nodetypes="cccc" />
    <path
       sodipodi:type="arc"
       style="fill:#ffffff;fill-opacity:0.52941165;stroke:none"
       id="path4038"
       sodipodi:cx="53.25"
       sodipodi:cy="64.375"
       sodipodi:rx="27.5"
       sodipodi:ry="13.75"
       d="m 80.75,64.375 a 27.5,13.75 0 1 1 -55,-10e-7"
       transform="matrix(1.3219555,0,0,1.3219555,-27.078491,-28.680076)"
       sodipodi:start="0"
       sodipodi:end="3.1415927"
       sodipodi:open="true" />
  </g>
  <g
     inkscape:groupmode="layer"
     id="layer3"
     inkscape:label="sail">
    <path
       style="font-size:22.16134071px;font-style:normal;font-weight:normal;line-height:125%;letter-spacing:0px;word-spacing:0px;fill:#000000;fill-opacity:1;stroke:none;font-family:Sans"
       d="m 41.559877,43.931159 c 1.284051,-1.296594 0.469235,-2.671418 -1.337364,-2.941616 -1.711654,-0.272398 -3.40216,-0.294747 -5.10293,-0.65064 -2.0181,-0.41299 -1.151292,-2.852172 -0.105807,-3.843348 1.736601,-2.087002 4.166332,-3.608379 6.761523,-4.367125 1.694718,-0.334016 3.61076,-0.704765 5.187511,0.821884 0.457631,0.337417 0.626159,1.5848 0.52924,2.096119 -0.106044,0.559465 -1.205182,0.726379 -1.195973,-0.254417 0.152835,-0.766585 -1.415979,-1.432135 -2.44983,-1.322447 -2.037116,0.206361 -3.960625,1.127788 -5.680237,2.19587 -1.127899,0.92946 -2.161397,1.410084 -2.730818,2.818566 -0.522085,0.934896 2.33637,0.914826 3.563092,1.138034 1.702469,0.221163 1.917543,0.218942 3.331785,0.704787 1.090079,0.570687 1.732812,2.246666 1.080121,3.075204 0.791645,-0.407935 2.77654,-2.142088 3.241048,-1.308605 -0.716386,1.605289 -2.60442,1.855606 -3.833657,2.966752 -1.965928,1.486694 -5.71275,4.281252 -5.939623,4.340836 -1.595146,1.003845 -3.265903,0.43376 -2.245512,-1.052592 1.176035,-1.733551 5.818753,-2.993303 6.173244,-3.556777 0.294853,-0.246783 0.491922,-0.583273 0.754188,-0.860496 z m -2.920538,3.005211 c -0.195584,-0.22939 -3.40619,0.816329 -3.399338,1.775941 0.352146,0.904376 3.641598,-1.673289 3.399338,-1.775941 z"
       id="text3783"
       inkscape:connector-curvature="0"
       sodipodi:nodetypes="ccccccscccccccccccccccc" />
  </g>
  <g
     inkscape:groupmode="layer"
     id="layer6"
     inkscape:label="jolla" />
  <g
     inkscape:groupmode="layer"
     id="layer7"
     inkscape:label="kirjaimet">
    <g
       transform="matrix(0.09205573,-0.0018393,0.0018393,0.09205573,46.373874,9.9131366)"
       id="layer1-5"
       inkscape:label="Taso 1">
      <g
         transform="translate(250.51783,-133.34014)"
         style="fill:#000000"
         id="g3001">
        <path
           style="fill:#000000;fill-opacity:1;stroke:#000000;stroke-width:0.34598556"
           d="m -82.053118,477.90975 c 0.035,4.2609 -9.03788,14.68882 -12.41784,17.95857 -10.512432,10.16969 -13.511632,12.17324 -18.723082,14.39714 -5.33727,2.27757 -9.79289,1.75057 -12.51104,-1.47978 -3.27202,-3.88857 -3.78843,-18.49641 -1.17319,-33.18588 2.09929,-4.76208 1.29638,-11.59201 7.77523,-33.23586 6.431,-21.84266 13.32343,-38.67922 21.251942,-51.91356 6.37517,-10.64148 16.11571,-21.41066 23.14011,-25.58377 3.80598,-2.2611 8.57585,-3.93619 11.20837,-3.93619 3.6903,0 7.04913,2.62809 8.07371,6.31722 3.62371,13.04776 -11.26658,39.00726 -45.707002,79.6849 -2.87704,3.39808 -5.80326,7.13461 -6.50274,8.30341 -1.4264,2.38353 -4.73768,14.61458 -5.5562,20.5233 -0.29457,2.12647 -0.5356,6.9363 -0.5356,10.68848 l 0,6.82216 1.38952,0.2779 c 1.98927,0.39785 4.5846,-0.73485 6.98473,-1.86467 0.8152,-0.38374 5.998895,-4.48931 11.122772,-8.76687 4.42366,-3.693 7.41145,-6.93449 9.93978,-8.36768 1.15835,0.3137 1.74343,0.83461 2.24053,3.36118 z m -16.53535,-46.43304 c 3.35301,-3.58494 10.3655,-12.85102 14.4211,-19.05559 4.11483,-6.29516 9.64701,-17.54002 10.88031,-22.11559 1.43529,-5.32491 1.516844,-12.90331 0.15693,-14.58274 l -0.91794,-1.13361 -0.75375,1.20242 c -3.634268,5.79757 -11.2493,19.23752 -13.89012,24.51497 -7.67458,15.33701 -14.711232,32.49085 -13.879842,33.83607 0.50571,0.81826 1.0908,0.42667 3.983312,-2.66593 z"
           id="path2997"
           inkscape:connector-curvature="0"
           sodipodi:nodetypes="csssccsssssssscsssccsscssscss" />
      </g>
    </g>
    <path
       style="fill:#000000;fill-opacity:1;stroke:#000000;stroke-width:0.03819108"
       d="m 45.339088,42.193226 c 0.251521,-0.260161 0.545843,-0.621334 0.669821,-0.854313 0.09685,-0.182021 0.3043,-0.579061 0.460986,-0.882321 0.540047,-1.045291 1.448891,-2.025535 2.2972,-2.477648 0.349112,-0.186061 0.382274,-0.192723 1.187794,-0.23856 0.637582,-0.03628 0.859729,-0.06842 0.963427,-0.139364 0.176749,-0.120925 0.36053,-0.0405 0.502554,0.219923 0.08673,0.159044 0.100904,0.285395 0.09151,0.815956 -0.01326,0.748547 -0.07813,0.994009 -0.63064,2.386295 -0.316907,0.798555 -0.396456,1.059511 -0.411382,1.349358 l -0.01851,0.359336 0.20918,0.165515 c 0.558756,0.442128 1.387451,0.286927 2.192336,-0.410585 0.404922,-0.350904 0.943287,-1.016875 1.463712,-1.810653 0.387155,-0.590506 0.542649,-0.78351 0.592586,-0.735531 0.01287,0.01232 0.05593,0.135073 0.09569,0.272699 0.09416,0.325814 0.0244,0.523894 -0.516631,1.467236 -0.98819,1.722993 -1.747818,2.449455 -2.925837,2.798087 -0.773202,0.22883 -1.379514,0.09323 -2.022121,-0.452254 -0.394184,-0.334606 -0.487639,-0.331476 -0.94861,0.03175 -0.443532,0.349483 -0.553796,0.415 -0.919705,0.54646 -0.634049,0.227797 -0.874711,0.141656 -1.5087,-0.540023 -0.204367,-0.219741 -0.366894,-0.767181 -0.528863,-0.775092 m 2.764349,-0.52067 c 0.333132,-0.148338 0.627964,-0.467168 0.817765,-0.884335 0.26618,-0.585035 0.700266,-1.993896 0.695034,-2.255782 -0.01714,-0.857747 -1.162237,-0.746168 -1.91315,0.186416 -0.597309,0.741823 -0.924489,1.633132 -0.818109,2.228704 0.112392,0.629197 0.677918,0.965694 1.218461,0.724996 z"
       id="path2997-1"
       inkscape:connector-curvature="0"
       sodipodi:nodetypes="cssssssssscssscssssssscscssss" />
    <path
       style="fill:#000000;fill-opacity:1;stroke:#000000;stroke-width:0.02780899"
       d="m 58.334072,42.236386 c -0.150074,0.128649 -0.933536,0.724082 -1.210633,0.994019 -0.8421,0.820339 -1.066255,0.999938 -1.481476,1.187018 -0.425247,0.191596 -0.784146,0.156401 -1.007767,-0.09883 -0.26918,-0.307231 -0.334133,-1.48029 -0.147558,-2.664935 0.160991,-0.386079 0.08556,-0.933619 0.571453,-2.683322 0.481727,-1.765607 0.21556,-0.660267 0.497048,-1.482945 0.930673,-0.184783 1.265545,-0.785088 0.444899,2.498933 -0.110801,0.193829 -0.357254,1.182034 -0.413543,1.658176 -0.02026,0.171354 -0.04884,0.559076 -0.02589,0.859787 l 0.01095,0.54823 0.112115,0.0201 c 0.160498,0.02878 0.38551,-0.03614 0.5583,-0.161061 0.267383,-0.193317 1.935809,-1.504171 2.238973,-2.232435"
       id="path2997-7"
       inkscape:connector-curvature="0"
       sodipodi:nodetypes="ssssccccsscsss" />
    <path
       style="fill:#000000;fill-opacity:1;stroke:#000000;stroke-width:0.16675971;stroke-linecap:butt;stroke-linejoin:miter;stroke-miterlimit:4;stroke-opacity:1;stroke-dasharray:none"
       d="m 55.629928,35.040328 c 0.408391,-0.0051 1.303865,-0.197175 1.280874,0.466858 0.01835,0.184638 0.01838,0.64277 0.0053,0.729704 -0.685121,0.0083 -1.388888,0.07885 -1.286242,-1.196559 z"
       id="path3985"
       inkscape:connector-curvature="0"
       sodipodi:nodetypes="cccc" />
  </g>
  <g
     inkscape:groupmode="layer"
     id="layer4"
     inkscape:label="imgur">
    <g
       id="layer1-2"
       transform="matrix(0.43933309,0,0,0.43933309,-233.24565,-264.28908)">
      <g
         id="text2996"
         transform="matrix(0.93208065,0,0,0.9103974,44.122131,58.811339)">
        <path
           style="fill:#000000"
           id="path3003"
           d="m 570.17592,754.21405 0,-19.02783 c -10e-6,-2.34546 0.39091,-4.09481 1.17275,-5.24804 0.78182,-1.15317 1.96434,-1.72977 3.54756,-1.72981 0.91864,4e-5 1.75422,0.25902 2.50674,0.77695 0.75251,0.51799 1.42195,1.30471 2.00833,2.36015 0.97728,-1.07498 2.08162,-1.86659 3.31302,-2.37481 1.23136,-0.50816 2.64843,-0.76225 4.25121,-0.76229 2.03274,4e-5 3.83095,0.37141 5.39463,1.11411 1.56364,0.74278 2.9123,1.85688 4.04598,3.34234 1.42682,-1.58318 2.88298,-2.72173 4.36849,-3.41563 1.48544,-0.69385 3.20547,-1.04078 5.16009,-1.04082 3.38138,4e-5 6.01028,1.08483 7.88672,3.25438 1.87635,2.16961 2.81455,5.22852 2.8146,9.17675 l 0,13.57455 c -5e-5,2.32595 -0.39097,4.05576 -1.17275,5.18941 -0.78188,1.13366 -1.97417,1.70048 -3.57688,1.70048 -1.6028,0 -2.78532,-0.56194 -3.54756,-1.68582 -0.76233,-1.12388 -1.14347,-2.85857 -1.14343,-5.20407 l 0,-10.70132 c -4e-5,-2.4823 -0.34698,-4.30005 -1.04081,-5.45328 -0.69392,-1.15317 -1.78359,-1.72977 -3.26904,-1.7298 -1.64188,3e-5 -2.84394,0.56685 -3.60619,1.70049 -0.76232,1.13367 -1.14346,2.92211 -1.14343,5.36532 l 0,10.81859 c -3e-5,2.32595 -0.39095,4.05576 -1.17275,5.18941 -0.78186,1.13366 -1.97415,1.70048 -3.57688,1.70048 -1.60278,0 -2.79507,-0.56682 -3.57688,-1.70048 -0.78186,-1.13365 -1.17277,-2.86346 -1.17275,-5.18941 l 0,-10.70132 c -2e-5,-2.50184 -0.34207,-4.32449 -1.02615,-5.46794 -0.68413,-1.1434 -1.75914,-1.71511 -3.22506,-1.71514 -1.64186,3e-5 -2.84393,0.56685 -3.6062,1.70049 -0.7623,1.13367 -1.14344,2.92211 -1.14343,5.36532 l 0,10.81859 c -10e-6,2.32595 -0.39092,4.05576 -1.17274,5.18941 -0.78185,1.13366 -1.97414,1.70048 -3.57688,1.70048 -1.60276,0 -2.79017,-0.56682 -3.56222,-1.70048 -0.77207,-1.13365 -1.1581,-2.86346 -1.15809,-5.18941 z"
           inkscape:connector-curvature="0" />
        <path
           style="fill:#000000"
           id="path3005"
           d="m 643.35536,756.73546 c -1.03595,1.48548 -2.26733,2.5947 -3.69415,3.32767 -1.42686,0.73297 -3.05893,1.09945 -4.89622,1.09945 -3.83099,0 -7.0707,-1.57343 -9.71915,-4.72031 -2.64845,-3.14686 -3.97268,-7.05602 -3.97268,-11.72747 0,-4.71052 1.42684,-8.67831 4.28053,-11.90339 2.85368,-3.22503 6.33282,-4.83755 10.43745,-4.83758 1.60274,3e-5 3.02469,0.27367 4.26587,0.82092 1.24114,0.54731 2.34059,1.39755 3.29835,2.55072 0.50817,-0.93816 1.13852,-1.67602 1.89106,-2.21356 0.75249,-0.53747 1.51966,-0.80623 2.30152,-0.80626 1.62227,3e-5 2.81945,0.56197 3.59154,1.68582 0.77202,1.12392 1.15805,2.84883 1.15808,5.17475 l 0,19.02783 c -3e-5,3.4987 -0.17105,6.23022 -0.51307,8.19457 -0.34209,1.96435 -0.9138,3.59154 -1.71515,4.88157 -1.38778,2.32594 -3.29838,4.08994 -5.7318,5.29202 -2.43347,1.20205 -5.32136,1.80309 -8.66367,1.8031 -4.08508,-10e-6 -7.41764,-0.6548 -9.99767,-1.96435 -2.58005,-1.30958 -3.87007,-2.9612 -3.87007,-4.95486 0,-1.1923 0.38603,-2.17936 1.15809,-2.96119 0.77205,-0.78183 1.74445,-1.17275 2.91721,-1.17275 0.56682,0 1.93013,0.42023 4.08995,1.26071 2.1598,0.84046 4.1779,1.2607 6.05431,1.2607 2.34548,0 4.16324,-0.69388 5.45328,-2.08163 1.29,-1.38775 1.93501,-3.3521 1.93503,-5.89305 -2e-5,-0.11727 -0.01,-0.30296 -0.0293,-0.55706 -0.0196,-0.25409 -0.0293,-0.44955 -0.0293,-0.58637 z M 630.8656,744.7148 c -10e-6,2.36505 0.57659,4.28054 1.72981,5.74646 1.15318,1.46594 2.63866,2.19891 4.45644,2.1989 1.81774,10e-6 3.31299,-0.73784 4.48576,-2.21356 1.17272,-1.4757 1.75909,-3.3863 1.75912,-5.7318 -3e-5,-2.28684 -0.5864,-4.14858 -1.75912,-5.58521 -1.17277,-1.4366 -2.66802,-2.1549 -4.48576,-2.15493 -1.81778,3e-5 -3.30326,0.71833 -4.45644,2.15493 -1.15322,1.43663 -1.72982,3.29837 -1.72981,5.58521 z"
           inkscape:connector-curvature="0" />
        <path
           style="fill:#000000"
           id="path3007"
           d="m 658.6304,747.79326 0,-12.60704 c -10e-6,-2.32592 0.39091,-4.05083 1.17274,-5.17475 0.78183,-1.12385 1.97412,-1.68579 3.57688,-1.68582 1.5832,3e-5 2.76084,0.56197 3.53291,1.68582 0.77204,1.12392 1.15807,2.84883 1.15808,5.17475 l 0,10.67201 c -10e-6,2.52141 0.38113,4.30497 1.14343,5.35066 0.76227,1.0457 2.00343,1.56855 3.72348,1.56855 1.72001,0 2.96116,-0.52285 3.72347,-1.56855 0.76226,-1.04569 1.14341,-2.82925 1.14343,-5.35066 l 0,-10.67201 c -2e-5,-2.32592 0.38601,-4.05083 1.15809,-5.17475 0.77203,-1.12385 1.96921,-1.68579 3.59154,-1.68582 1.58318,3e-5 2.75592,0.55709 3.51824,1.67116 0.76225,1.11414 1.1434,2.84395 1.14343,5.18941 l 0,12.60704 c -3e-5,4.49554 -1.22164,7.93071 -3.66484,10.30552 -2.44325,2.37481 -5.98103,3.56222 -10.61336,3.56222 -4.63237,0 -8.17504,-1.18741 -10.62803,-3.56222 -2.453,-2.37481 -3.6795,-5.80998 -3.67949,-10.30552 z"
           inkscape:connector-curvature="0" />
        <path
           style="fill:#000000"
           id="path3009"
           d="m 693.66624,754.21405 0,-19.02783 c 0,-2.32592 0.38603,-4.05083 1.15809,-5.17475 0.77205,-1.12385 1.95946,-1.68579 3.56222,-1.68582 0.95773,3e-5 1.80797,0.24924 2.55072,0.74763 0.74273,0.49844 1.39752,1.25584 1.96436,2.27219 0.97727,-1.05544 2.0132,-1.85193 3.10778,-2.38947 1.09455,-0.53748 2.19888,-0.80623 3.31301,-0.80626 1.30955,3e-5 2.43832,0.46424 3.38631,1.39263 0.94795,0.92846 1.42193,2.02791 1.42195,3.29836 -2e-5,1.89597 -1.73959,3.47917 -5.21872,4.74962 -1.25095,0.44958 -2.18915,0.82095 -2.8146,1.11412 -1.1923,0.56684 -1.98391,1.1972 -2.37481,1.89105 -0.39093,0.6939 -0.58639,1.94971 -0.58637,3.76745 l 0,9.85108 c -2e-5,2.32595 -0.39093,4.05576 -1.17275,5.18941 -0.78184,1.13366 -1.97414,1.70048 -3.57688,1.70048 -1.60276,0 -2.79017,-0.56682 -3.56222,-1.70048 -0.77206,-1.13365 -1.15809,-2.86346 -1.15809,-5.18941 z"
           inkscape:connector-curvature="0" />
        <g
           id="g3797">
          <path
             style="fill:#000000"
             id="path3001"
             d="m 563.34466,754.21405 c -10e-6,2.3455 -0.38115,4.08019 -1.14343,5.20407 -0.76229,1.12388 -1.93504,1.68582 -3.51824,1.68582 -1.60276,0 -2.79505,-0.56682 -3.57688,-1.70048 -0.78183,-1.13365 -1.17275,-2.86346 -1.17275,-5.18941 l 0,-19.02783 c 0,-2.32592 0.38603,-4.05083 1.15809,-5.17475 0.77206,-1.12385 1.96923,-1.68579 3.59154,-1.68582 1.5832,3e-5 2.75595,0.56197 3.51824,1.68582 0.76228,1.12392 1.14342,2.84883 1.14343,5.17475 z"
             inkscape:connector-curvature="0" />
          <path
             style="fill:#89c623"
             id="path3001-4"
             d="m 553.2004,720.35097 c -10e-6,-1.50499 0.5375,-2.79501 1.61253,-3.87007 1.07501,-1.07497 2.36503,-1.61248 3.87006,-1.61253 1.48547,5e-5 2.75595,0.53756 3.81143,1.61253 1.05546,1.07506 1.5832,2.36508 1.58321,3.87007 -10e-6,1.52461 -0.52286,2.81463 -1.56855,3.87006 -1.04571,1.05551 -2.32107,1.58325 -3.82609,1.58321 -1.54412,4e-5 -2.84392,-0.5277 -3.89938,-1.58321 -1.05548,-1.05543 -1.58322,-2.34545 -1.58321,-3.87006 z"
             inkscape:connector-curvature="0" />
        </g>
      </g>
    </g>
  </g>
</svg>
