<?xml version="1.0" encoding="UTF-8" standalone="no"?>
<!-- Created with Inkscape (http://www.inkscape.org/) -->

<svg
   xmlns:dc="http://purl.org/dc/elements/1.1/"
   xmlns:cc="http://creativecommons.org/ns#"
   xmlns:rdf="http://www.w3.org/1999/02/22-rdf-syntax-ns#"
   xmlns:svg="http://www.w3.org/2000/svg"
   xmlns="http://www.w3.org/2000/svg"
   xmlns:xlink="http://www.w3.org/1999/xlink"
   xmlns:sodipodi="http://sodipodi.sourceforge.net/DTD/sodipodi-0.dtd"
   xmlns:inkscape="http://www.inkscape.org/namespaces/inkscape"
   width="86"
   height="86"
   id="svg2"
   version="1.1"
   inkscape:version="0.48.2 r9819"
   sodipodi:docname="sailimgur-logo_86x86_v2.svg"
   inkscape:export-filename="icon.png"
   inkscape:export-xdpi="90"
   inkscape:export-ydpi="90">
  <defs
     id="defs4">
    <linearGradient
       id="linearGradient4047">
      <stop
         id="stop4049"
         offset="0"
         style="stop-color:#f4e327;stop-opacity:0.72649574;" />
      <stop
         id="stop4051"
         offset="1"
         style="stop-color:#e7ad59;stop-opacity:0.73504275;" />
    </linearGradient>
    <linearGradient
       id="linearGradient3759">
      <stop
         style="stop-color:#0b0000;stop-opacity:0.49411765;"
         offset="0"
         id="stop3761" />
      <stop
         style="stop-color:#140000;stop-opacity:1;"
         offset="1"
         id="stop3763" />
    </linearGradient>
    <linearGradient
       inkscape:collect="always"
       xlink:href="#linearGradient3759"
       id="linearGradient3765"
       x1="86"
       y1="0"
       x2="0"
       y2="86"
       gradientUnits="userSpaceOnUse" />
    <linearGradient
       inkscape:collect="always"
       xlink:href="#linearGradient3759"
       id="linearGradient4487"
       x1="85"
       y1="-12.999999"
       x2="0"
       y2="72"
       gradientUnits="userSpaceOnUse" />
    <linearGradient
       inkscape:collect="always"
       xlink:href="#linearGradient3759-7"
       id="linearGradient5742-1"
       x1="86"
       y1="0"
       x2="0"
       y2="86"
       gradientUnits="userSpaceOnUse" />
    <linearGradient
       id="linearGradient3759-7">
      <stop
         style="stop-color:#00802e;stop-opacity:1;"
         offset="0"
         id="stop3761-4" />
      <stop
         style="stop-color:#39c6c4;stop-opacity:1;"
         offset="1"
         id="stop3763-0" />
    </linearGradient>
    <linearGradient
       inkscape:collect="always"
       xlink:href="#linearGradient3759"
       id="linearGradient3776"
       gradientUnits="userSpaceOnUse"
       x1="85"
       y1="1"
       x2="0"
       y2="86"
       gradientTransform="matrix(-1,0,0,1,86,966.36218)" />
    <linearGradient
       inkscape:collect="always"
       xlink:href="#linearGradient3759-7"
       id="linearGradient3982"
       x1="-30.942495"
       y1="-28.655087"
       x2="50.924835"
       y2="50.179482"
       gradientUnits="userSpaceOnUse" />
  </defs>
  <sodipodi:namedview
     id="base"
     pagecolor="#ffffff"
     bordercolor="#666666"
     borderopacity="1.0"
     inkscape:pageopacity="0.0"
     inkscape:pageshadow="2"
     inkscape:zoom="5.6568542"
     inkscape:cx="25.902935"
     inkscape:cy="44.297743"
     inkscape:document-units="px"
     inkscape:current-layer="layer9"
     showgrid="true"
     inkscape:snap-global="false"
     inkscape:window-width="1280"
     inkscape:window-height="752"
     inkscape:window-x="2"
     inkscape:window-y="0"
     inkscape:window-maximized="0">
    <inkscape:grid
       type="xygrid"
       id="grid2985"
       empspacing="5"
       visible="true"
       enabled="true"
       snapvisiblegridlinesonly="true"
       spacingx="1px"
       spacingy="1px" />
  </sodipodi:namedview>
  <metadata
     id="metadata7">
    <rdf:RDF>
      <cc:Work
         rdf:about="">
        <dc:format>image/svg+xml</dc:format>
        <dc:type
           rdf:resource="http://purl.org/dc/dcmitype/StillImage" />
        <dc:title />
      </cc:Work>
    </rdf:RDF>
  </metadata>
  <g
     inkscape:label="square"
     inkscape:groupmode="layer"
     id="layer1"
     transform="translate(0,-966.36218)"
     style="display:none">
    <path
       style="fill:url(#linearGradient3776);fill-opacity:1;stroke:none"
       d="m 0,1009.3622 c 0,9.9927 0,41 0,41 0,1 1,2 2,2 0,0 28.786311,0 41,0 11.512947,0 41,0 41,0 1,0 2,-1 2,-2 0,0 0,-29.978 0,-41 0,-12.32734 0,-41.00002 0,-41.00002 0,-1 -1,-2 -2,-2 0,0 -31.870917,0 -41,0 -10.861218,0 -41,0 -41,0 -1,0 -2,1 -2,2 0,0 0,30.81917 0,41.00002 z"
       id="path5226"
       inkscape:connector-curvature="0"
       sodipodi:nodetypes="sccsccsccsccs" />
    <text
       xml:space="preserve"
       style="font-size:40px;font-style:normal;font-weight:normal;line-height:125%;letter-spacing:0px;word-spacing:0px;fill:#000000;fill-opacity:1;stroke:none;font-family:Sans"
       x="3.5355339"
       y="38.977398"
       id="text3778"
       sodipodi:linespacing="125%"
       transform="translate(0,966.36218)"><tspan
         sodipodi:role="line"
         id="tspan3780"
         x="3.5355339"
         y="38.977398" /></text>
  </g>
  <g
     inkscape:groupmode="layer"
     id="layer9"
     inkscape:label="sphere">
    <path
       sodipodi:type="arc"
       style="fill:url(#linearGradient3982);fill-opacity:1;stroke:none"
       id="path3974"
       sodipodi:cx="10.076272"
       sodipodi:cy="10.516351"
       sodipodi:rx="41.188969"
       sodipodi:ry="39.59798"
       d="m 51.265241,10.516351 a 41.188969,39.59798 0 1 1 -82.377938,0 41.188969,39.59798 0 1 1 82.377938,0 z"
       transform="matrix(1.0374137,0,0,1.0785826,32.63029,31.807016)" />
    <path
       transform="matrix(0.78789453,0,0,0.82027157,34.752532,35.064422)"
       d="m 52.217145,10.516351 a 42.140873,40.207535 0 1 1 -84.281746,0 42.140873,40.207535 0 1 1 84.281746,0 z"
       sodipodi:ry="40.207535"
       sodipodi:rx="42.140873"
       sodipodi:cy="10.516351"
       sodipodi:cx="10.076272"
       id="path4014"
       style="fill:#d5d749;fill-opacity:1;stroke:none;stroke-width:0.74634283999999984;stroke-miterlimit:4;stroke-opacity:0.52941170000000004;stroke-dasharray:none"
       sodipodi:type="arc" />
  </g>
  <g
     inkscape:groupmode="layer"
     id="layer5"
     inkscape:label="purje">
    <path
       style="fill:#ffffff;fill-opacity:1;stroke:none"
       d="m 61.650125,52.467795 -45.208621,0.25 C 27.146156,36.660818 46.071701,23.190223 62.128678,17.837898 z"
       id="path3845"
       inkscape:connector-curvature="0"
       sodipodi:nodetypes="cccc" />
    <path
       style="fill:none;stroke:#ffffff;stroke-width:1;stroke-linecap:butt;stroke-linejoin:miter;stroke-miterlimit:4;stroke-opacity:1;stroke-dasharray:none"
       d="m 63.16994,18.144399 -0.25,34.393029"
       id="path4018"
       inkscape:connector-curvature="0"
       sodipodi:nodetypes="cc" />
    <path
       style="fill:#ffffff;fill-opacity:1;stroke:none"
       d="m 12.072592,56.146185 61.39329,0.05178 C 69.8061,65.084917 59.209455,76.535132 42.758514,76.682612 27.349995,76.63043 16.627493,66.90496 12.072592,56.146185 z"
       id="path3041"
       inkscape:connector-curvature="0"
       sodipodi:nodetypes="cccc" />
  </g>
  <g
     inkscape:groupmode="layer"
     id="layer3"
     inkscape:label="sail">
    <path
       style="font-size:22.16134071px;font-style:normal;font-weight:normal;line-height:125%;letter-spacing:0px;word-spacing:0px;fill:#000000;fill-opacity:1;stroke:none;font-family:Sans"
       d="m 36.420171,46.242926 c 1.401575,-1.415268 0.512182,-2.915921 -1.459766,-3.21085 -1.868314,-0.297329 -3.713543,-0.321723 -5.569978,-0.71019 -2.202807,-0.450788 -1.256664,-3.113217 -0.11549,-4.195111 1.895543,-2.278016 4.547656,-3.938638 7.380373,-4.766828 1.849828,-0.364587 3.941235,-0.769269 5.6623,0.897108 0.499515,0.368298 0.683468,1.729849 0.57768,2.287967 -0.115751,0.61067 -1.315489,0.79286 -1.305435,-0.277702 0.166821,-0.836748 -1.545578,-1.563213 -2.674052,-1.443485 -2.223564,0.225248 -4.323123,1.231009 -6.200123,2.396847 -1.231131,1.014529 -2.35922,1.539142 -2.980758,3.076537 -0.569869,1.020461 2.550207,0.998555 3.889206,1.242192 1.858287,0.241406 2.093047,0.238982 3.636728,0.769294 1.189848,0.622919 1.891407,2.452292 1.178979,3.356661 0.8641,-0.44527 3.030664,-2.338143 3.537687,-1.428373 -0.781955,1.752213 -2.842792,2.025441 -4.184534,3.238284 -2.145861,1.622764 -6.235613,4.673095 -6.48325,4.738133 -1.741142,1.095721 -3.564816,0.473459 -2.451033,-1.148932 1.283672,-1.892214 6.351317,-3.267265 6.738252,-3.882312 0.32184,-0.26937 0.536945,-0.636657 0.823215,-0.939254 z m -3.187839,3.280262 c -0.213487,-0.250384 -3.717944,0.891044 -3.710466,1.938485 0.384377,0.987149 3.974896,-1.826436 3.710466,-1.938485 z"
       id="text3783"
       inkscape:connector-curvature="0"
       sodipodi:nodetypes="ccccccscccccccccccccccc" />
  </g>
  <g
     inkscape:groupmode="layer"
     id="layer6"
     inkscape:label="jolla" />
  <g
     inkscape:groupmode="layer"
     id="layer7"
     inkscape:label="kirjaimet">
    <g
       transform="matrix(0.10048116,-0.00200763,0.00200763,0.10048116,41.674771,9.1113932)"
       id="layer1-5"
       inkscape:label="Taso 1">
      <g
         transform="translate(250.51783,-133.34014)"
         style="fill:#000000"
         id="g3001">
        <path
           style="fill:#000000;fill-opacity:1;stroke:#000000;stroke-width:0.34598556"
           d="m -82.053118,477.90975 c 0.035,4.2609 -9.03788,14.68882 -12.41784,17.95857 -10.512432,10.16969 -13.511632,12.17324 -18.723082,14.39714 -5.33727,2.27757 -9.79289,1.75057 -12.51104,-1.47978 -3.27202,-3.88857 -3.78843,-18.49641 -1.17319,-33.18588 2.09929,-4.76208 1.29638,-11.59201 7.77523,-33.23586 6.431,-21.84266 13.32343,-38.67922 21.251942,-51.91356 6.37517,-10.64148 16.11571,-21.41066 23.14011,-25.58377 3.80598,-2.2611 8.57585,-3.93619 11.20837,-3.93619 3.6903,0 7.04913,2.62809 8.07371,6.31722 3.62371,13.04776 -11.26658,39.00726 -45.707002,79.6849 -2.87704,3.39808 -5.80326,7.13461 -6.50274,8.30341 -1.4264,2.38353 -4.73768,14.61458 -5.5562,20.5233 -0.29457,2.12647 -0.5356,6.9363 -0.5356,10.68848 l 0,6.82216 1.38952,0.2779 c 1.98927,0.39785 4.5846,-0.73485 6.98473,-1.86467 0.8152,-0.38374 5.998895,-4.48931 11.122772,-8.76687 4.42366,-3.693 7.41145,-6.93449 9.93978,-8.36768 1.15835,0.3137 1.74343,0.83461 2.24053,3.36118 z m -16.53535,-46.43304 c 3.35301,-3.58494 10.3655,-12.85102 14.4211,-19.05559 4.11483,-6.29516 9.64701,-17.54002 10.88031,-22.11559 1.43529,-5.32491 1.516844,-12.90331 0.15693,-14.58274 l -0.91794,-1.13361 -0.75375,1.20242 c -3.634268,5.79757 -11.2493,19.23752 -13.89012,24.51497 -7.67458,15.33701 -14.711232,32.49085 -13.879842,33.83607 0.50571,0.81826 1.0908,0.42667 3.983312,-2.66593 z"
           id="path2997"
           inkscape:connector-curvature="0"
           sodipodi:nodetypes="csssccsssssssscsssccsscssscss" />
      </g>
    </g>
    <path
       style="fill:#000000;fill-opacity:1;stroke:#000000;stroke-width:0.04168653"
       d="m 40.545277,44.345926 c 0.274541,-0.283972 0.595801,-0.678201 0.731126,-0.932503 0.105716,-0.19868 0.332151,-0.632061 0.503177,-0.963076 0.589475,-1.140962 1.581503,-2.210922 2.507452,-2.704415 0.381066,-0.203091 0.417261,-0.210363 1.296508,-0.260395 0.695937,-0.0396 0.938415,-0.0747 1.051605,-0.152118 0.192927,-0.131994 0.393527,-0.0442 0.54855,0.24005 0.09467,0.173601 0.110142,0.311517 0.09988,0.890638 -0.01447,0.817056 -0.08527,1.084985 -0.688359,2.6047 -0.345913,0.871643 -0.432743,1.156485 -0.449035,1.472858 l -0.0202,0.392225 0.228326,0.180665 c 0.609897,0.482592 1.514439,0.313188 2.392991,-0.448165 0.441982,-0.383021 1.029621,-1.109945 1.597678,-1.976374 0.42259,-0.644551 0.592314,-0.85522 0.646823,-0.80285 0.01405,0.01345 0.06106,0.147435 0.104446,0.297657 0.102779,0.355635 0.02664,0.571843 -0.563917,1.601526 -1.078633,1.880691 -1.907787,2.673642 -3.193624,3.054183 -0.84397,0.249774 -1.505775,0.101761 -2.207196,-0.493647 -0.430263,-0.36523 -0.532271,-0.361814 -1.035432,0.03465 -0.484126,0.381469 -0.604482,0.452983 -1.003881,0.596475 -0.692082,0.248646 -0.95477,0.154621 -1.646785,-0.589449 -0.223072,-0.239853 -0.400475,-0.837397 -0.577267,-0.846033 m 3.017356,-0.568324 c 0.363624,-0.161915 0.68544,-0.509926 0.892611,-0.965274 0.290543,-0.638581 0.764358,-2.176388 0.758648,-2.462244 -0.01871,-0.936252 -1.268611,-0.814461 -2.088251,0.203478 -0.651978,0.80972 -1.009105,1.782604 -0.892988,2.432688 0.122679,0.686784 0.739965,1.054078 1.329981,0.791351 z"
       id="path2997-1"
       inkscape:connector-curvature="0"
       sodipodi:nodetypes="cssssssssscssscssssssscscssss" />
    <path
       style="fill:#000000;fill-opacity:1;stroke:#000000;stroke-width:0.03035423"
       d="m 54.72963,44.393038 c -0.163809,0.140424 -1.018979,0.790354 -1.321436,1.084995 -0.919173,0.895422 -1.163845,1.091459 -1.617068,1.295661 -0.464168,0.209133 -0.855915,0.170716 -1.100004,-0.107877 -0.293817,-0.33535 -0.364715,-1.615774 -0.161063,-2.908845 0.175725,-0.421414 0.09339,-1.019068 0.623755,-2.928913 0.525818,-1.927205 0.235289,-0.720699 0.54254,-1.618672 1.015853,-0.201695 1.381375,-0.856944 0.485619,2.727648 -0.120942,0.21157 -0.389951,1.290221 -0.451393,1.809941 -0.0221,0.187039 -0.05331,0.610246 -0.02826,0.93848 l 0.01196,0.598406 0.122375,0.02194 c 0.175189,0.03143 0.420795,-0.03945 0.6094,-0.175802 0.291855,-0.211011 2.112985,-1.641841 2.443895,-2.436759"
       id="path2997-7"
       inkscape:connector-curvature="0"
       sodipodi:nodetypes="ssssccccsscsss" />
    <path
       style="fill:#000000;fill-opacity:1;stroke:#000000;stroke-width:0.18202245;stroke-linecap:butt;stroke-linejoin:miter;stroke-miterlimit:4;stroke-opacity:1;stroke-dasharray:none"
       d="m 51.777988,36.538358 c 0.445769,-0.0056 1.423203,-0.215221 1.398107,0.509588 0.02003,0.201536 0.02006,0.701598 0.0058,0.79649 -0.747827,0.009 -1.516005,0.08606 -1.403966,-1.306075 z"
       id="path3985"
       inkscape:connector-curvature="0"
       sodipodi:nodetypes="cccc" />
  </g>
  <g
     inkscape:groupmode="layer"
     id="layer4"
     inkscape:label="imgur">
    <g
       id="layer1-2"
       transform="matrix(0.35448028,0,0,0.35448028,-180.6228,-202.30758)">
      <g
         id="text2996"
         transform="matrix(0.93208065,0,0,0.9103974,44.122131,58.811339)">
        <path
           style="fill:#000000"
           id="path3003"
           d="m 570.17592,754.21405 0,-19.02783 c -10e-6,-2.34546 0.39091,-4.09481 1.17275,-5.24804 0.78182,-1.15317 1.96434,-1.72977 3.54756,-1.72981 0.91864,4e-5 1.75422,0.25902 2.50674,0.77695 0.75251,0.51799 1.42195,1.30471 2.00833,2.36015 0.97728,-1.07498 2.08162,-1.86659 3.31302,-2.37481 1.23136,-0.50816 2.64843,-0.76225 4.25121,-0.76229 2.03274,4e-5 3.83095,0.37141 5.39463,1.11411 1.56364,0.74278 2.9123,1.85688 4.04598,3.34234 1.42682,-1.58318 2.88298,-2.72173 4.36849,-3.41563 1.48544,-0.69385 3.20547,-1.04078 5.16009,-1.04082 3.38138,4e-5 6.01028,1.08483 7.88672,3.25438 1.87635,2.16961 2.81455,5.22852 2.8146,9.17675 l 0,13.57455 c -5e-5,2.32595 -0.39097,4.05576 -1.17275,5.18941 -0.78188,1.13366 -1.97417,1.70048 -3.57688,1.70048 -1.6028,0 -2.78532,-0.56194 -3.54756,-1.68582 -0.76233,-1.12388 -1.14347,-2.85857 -1.14343,-5.20407 l 0,-10.70132 c -4e-5,-2.4823 -0.34698,-4.30005 -1.04081,-5.45328 -0.69392,-1.15317 -1.78359,-1.72977 -3.26904,-1.7298 -1.64188,3e-5 -2.84394,0.56685 -3.60619,1.70049 -0.76232,1.13367 -1.14346,2.92211 -1.14343,5.36532 l 0,10.81859 c -3e-5,2.32595 -0.39095,4.05576 -1.17275,5.18941 -0.78186,1.13366 -1.97415,1.70048 -3.57688,1.70048 -1.60278,0 -2.79507,-0.56682 -3.57688,-1.70048 -0.78186,-1.13365 -1.17277,-2.86346 -1.17275,-5.18941 l 0,-10.70132 c -2e-5,-2.50184 -0.34207,-4.32449 -1.02615,-5.46794 -0.68413,-1.1434 -1.75914,-1.71511 -3.22506,-1.71514 -1.64186,3e-5 -2.84393,0.56685 -3.6062,1.70049 -0.7623,1.13367 -1.14344,2.92211 -1.14343,5.36532 l 0,10.81859 c -10e-6,2.32595 -0.39092,4.05576 -1.17274,5.18941 -0.78185,1.13366 -1.97414,1.70048 -3.57688,1.70048 -1.60276,0 -2.79017,-0.56682 -3.56222,-1.70048 -0.77207,-1.13365 -1.1581,-2.86346 -1.15809,-5.18941 z"
           inkscape:connector-curvature="0" />
        <path
           style="fill:#000000"
           id="path3005"
           d="m 643.35536,756.73546 c -1.03595,1.48548 -2.26733,2.5947 -3.69415,3.32767 -1.42686,0.73297 -3.05893,1.09945 -4.89622,1.09945 -3.83099,0 -7.0707,-1.57343 -9.71915,-4.72031 -2.64845,-3.14686 -3.97268,-7.05602 -3.97268,-11.72747 0,-4.71052 1.42684,-8.67831 4.28053,-11.90339 2.85368,-3.22503 6.33282,-4.83755 10.43745,-4.83758 1.60274,3e-5 3.02469,0.27367 4.26587,0.82092 1.24114,0.54731 2.34059,1.39755 3.29835,2.55072 0.50817,-0.93816 1.13852,-1.67602 1.89106,-2.21356 0.75249,-0.53747 1.51966,-0.80623 2.30152,-0.80626 1.62227,3e-5 2.81945,0.56197 3.59154,1.68582 0.77202,1.12392 1.15805,2.84883 1.15808,5.17475 l 0,19.02783 c -3e-5,3.4987 -0.17105,6.23022 -0.51307,8.19457 -0.34209,1.96435 -0.9138,3.59154 -1.71515,4.88157 -1.38778,2.32594 -3.29838,4.08994 -5.7318,5.29202 -2.43347,1.20205 -5.32136,1.80309 -8.66367,1.8031 -4.08508,-10e-6 -7.41764,-0.6548 -9.99767,-1.96435 -2.58005,-1.30958 -3.87007,-2.9612 -3.87007,-4.95486 0,-1.1923 0.38603,-2.17936 1.15809,-2.96119 0.77205,-0.78183 1.74445,-1.17275 2.91721,-1.17275 0.56682,0 1.93013,0.42023 4.08995,1.26071 2.1598,0.84046 4.1779,1.2607 6.05431,1.2607 2.34548,0 4.16324,-0.69388 5.45328,-2.08163 1.29,-1.38775 1.93501,-3.3521 1.93503,-5.89305 -2e-5,-0.11727 -0.01,-0.30296 -0.0293,-0.55706 -0.0196,-0.25409 -0.0293,-0.44955 -0.0293,-0.58637 z M 630.8656,744.7148 c -10e-6,2.36505 0.57659,4.28054 1.72981,5.74646 1.15318,1.46594 2.63866,2.19891 4.45644,2.1989 1.81774,10e-6 3.31299,-0.73784 4.48576,-2.21356 1.17272,-1.4757 1.75909,-3.3863 1.75912,-5.7318 -3e-5,-2.28684 -0.5864,-4.14858 -1.75912,-5.58521 -1.17277,-1.4366 -2.66802,-2.1549 -4.48576,-2.15493 -1.81778,3e-5 -3.30326,0.71833 -4.45644,2.15493 -1.15322,1.43663 -1.72982,3.29837 -1.72981,5.58521 z"
           inkscape:connector-curvature="0" />
        <path
           style="fill:#000000"
           id="path3007"
           d="m 658.6304,747.79326 0,-12.60704 c -10e-6,-2.32592 0.39091,-4.05083 1.17274,-5.17475 0.78183,-1.12385 1.97412,-1.68579 3.57688,-1.68582 1.5832,3e-5 2.76084,0.56197 3.53291,1.68582 0.77204,1.12392 1.15807,2.84883 1.15808,5.17475 l 0,10.67201 c -10e-6,2.52141 0.38113,4.30497 1.14343,5.35066 0.76227,1.0457 2.00343,1.56855 3.72348,1.56855 1.72001,0 2.96116,-0.52285 3.72347,-1.56855 0.76226,-1.04569 1.14341,-2.82925 1.14343,-5.35066 l 0,-10.67201 c -2e-5,-2.32592 0.38601,-4.05083 1.15809,-5.17475 0.77203,-1.12385 1.96921,-1.68579 3.59154,-1.68582 1.58318,3e-5 2.75592,0.55709 3.51824,1.67116 0.76225,1.11414 1.1434,2.84395 1.14343,5.18941 l 0,12.60704 c -3e-5,4.49554 -1.22164,7.93071 -3.66484,10.30552 -2.44325,2.37481 -5.98103,3.56222 -10.61336,3.56222 -4.63237,0 -8.17504,-1.18741 -10.62803,-3.56222 -2.453,-2.37481 -3.6795,-5.80998 -3.67949,-10.30552 z"
           inkscape:connector-curvature="0" />
        <path
           style="fill:#000000"
           id="path3009"
           d="m 693.66624,754.21405 0,-19.02783 c 0,-2.32592 0.38603,-4.05083 1.15809,-5.17475 0.77205,-1.12385 1.95946,-1.68579 3.56222,-1.68582 0.95773,3e-5 1.80797,0.24924 2.55072,0.74763 0.74273,0.49844 1.39752,1.25584 1.96436,2.27219 0.97727,-1.05544 2.0132,-1.85193 3.10778,-2.38947 1.09455,-0.53748 2.19888,-0.80623 3.31301,-0.80626 1.30955,3e-5 2.43832,0.46424 3.38631,1.39263 0.94795,0.92846 1.42193,2.02791 1.42195,3.29836 -2e-5,1.89597 -1.73959,3.47917 -5.21872,4.74962 -1.25095,0.44958 -2.18915,0.82095 -2.8146,1.11412 -1.1923,0.56684 -1.98391,1.1972 -2.37481,1.89105 -0.39093,0.6939 -0.58639,1.94971 -0.58637,3.76745 l 0,9.85108 c -2e-5,2.32595 -0.39093,4.05576 -1.17275,5.18941 -0.78184,1.13366 -1.97414,1.70048 -3.57688,1.70048 -1.60276,0 -2.79017,-0.56682 -3.56222,-1.70048 -0.77206,-1.13365 -1.15809,-2.86346 -1.15809,-5.18941 z"
           inkscape:connector-curvature="0" />
        <g
           id="g3797">
          <path
             style="fill:#000000"
             id="path3001"
             d="m 563.34466,754.21405 c -10e-6,2.3455 -0.38115,4.08019 -1.14343,5.20407 -0.76229,1.12388 -1.93504,1.68582 -3.51824,1.68582 -1.60276,0 -2.79505,-0.56682 -3.57688,-1.70048 -0.78183,-1.13365 -1.17275,-2.86346 -1.17275,-5.18941 l 0,-19.02783 c 0,-2.32592 0.38603,-4.05083 1.15809,-5.17475 0.77206,-1.12385 1.96923,-1.68579 3.59154,-1.68582 1.5832,3e-5 2.75595,0.56197 3.51824,1.68582 0.76228,1.12392 1.14342,2.84883 1.14343,5.17475 z"
             inkscape:connector-curvature="0" />
          <path
             style="fill:#89c623"
             id="path3001-4"
             d="m 553.2004,720.35097 c -10e-6,-1.50499 0.5375,-2.79501 1.61253,-3.87007 1.07501,-1.07497 2.36503,-1.61248 3.87006,-1.61253 1.48547,5e-5 2.75595,0.53756 3.81143,1.61253 1.05546,1.07506 1.5832,2.36508 1.58321,3.87007 -10e-6,1.52461 -0.52286,2.81463 -1.56855,3.87006 -1.04571,1.05551 -2.32107,1.58325 -3.82609,1.58321 -1.54412,4e-5 -2.84392,-0.5277 -3.89938,-1.58321 -1.05548,-1.05543 -1.58322,-2.34545 -1.58321,-3.87006 z"
             inkscape:connector-curvature="0" />
        </g>
      </g>
    </g>
  </g>
</svg>
